<svg width="24" height="24" viewBox="0 0 24 24" fill="none" xmlns="http://www.w3.org/2000/svg">
<path d="M11.3828 6H20.875L20.5234 6.70312L20.875 7.40625V8.8125L20.5234 9.51562L20.875 10.2188V11.625L20.5234 12.3281L20.875 13.0312V14.4375L20.5234 15.1406L20.875 15.8438V17.25L20.5234 17.9531L20.875 18.6562H4L4.35156 17.9531L4 17.25V15.8438L4.35156 15.1406L4 14.4375V13.0312L4.35156 12.3281L4 11.625L11.3828 6Z" fill="#E25151"/>
<path d="M4 17.25H20.875V18.6562H4V17.25Z" fill="white"/>
<path d="M4 14.4375H20.875V15.8438H4V14.4375Z" fill="white"/>
<path d="M4 11.625H20.875V13.0312H4V11.625Z" fill="white"/>
<path d="M11.3828 8.8125H20.875V10.2188H11.3828V8.8125Z" fill="white"/>
<path d="M11.3828 6H20.875V7.40625H11.3828V6Z" fill="white"/>
<path d="M4 6H11.3828V11.625H4V6Z" fill="#0064D3"/>
<path d="M5.23652 6.32959L5.34814 6.67314H5.70938L5.41712 6.88548L5.52878 7.22903L5.23652 7.01668L4.94427 7.22903L5.05593 6.88548L4.76367 6.67314H5.1249L5.23652 6.32959Z" fill="white"/>
<path d="M6.87324 6.32959L6.98486 6.67314H7.34609L7.05384 6.88548L7.1655 7.22903L6.87324 7.01668L6.58102 7.22903L6.69264 6.88548L6.40039 6.67314H6.76162L6.87324 6.32959Z" fill="white"/>
<path d="M8.50996 6.32959L8.62158 6.67314H8.98281L8.69059 6.88548L8.80221 7.22903L8.50996 7.01668L8.21774 7.22903L8.32936 6.88548L8.03711 6.67314H8.39834L8.50996 6.32959Z" fill="white"/>
<path d="M10.1467 6.32959L10.2583 6.67314H10.6195L10.3273 6.88548L10.4389 7.22903L10.1467 7.01668L9.85446 7.22903L9.96608 6.88548L9.67383 6.67314H10.0351L10.1467 6.32959Z" fill="white"/>
<path d="M5.23652 7.68506L5.34814 8.02861H5.70938L5.41712 8.24091L5.52878 8.58446L5.23652 8.37215L4.94427 8.58446L5.05593 8.24091L4.76367 8.02861H5.1249L5.23652 7.68506Z" fill="white"/>
<path d="M6.87324 7.68506L6.98486 8.02861H7.34609L7.05384 8.24091L7.1655 8.58446L6.87324 8.37215L6.58102 8.58446L6.69264 8.24091L6.40039 8.02861H6.76162L6.87324 7.68506Z" fill="white"/>
<path d="M8.50996 7.68506L8.62158 8.02861H8.98281L8.69059 8.24091L8.80221 8.58446L8.50996 8.37215L8.21774 8.58446L8.32936 8.24091L8.03711 8.02861H8.39834L8.50996 7.68506Z" fill="white"/>
<path d="M10.1467 7.68506L10.2583 8.02861H10.6195L10.3273 8.24091L10.4389 8.58446L10.1467 8.37215L9.85446 8.58446L9.96608 8.24091L9.67383 8.02861H10.0351L10.1467 7.68506Z" fill="white"/>
<path d="M5.23652 9.04053L5.34814 9.38407H5.70938L5.41712 9.59638L5.52878 9.93993L5.23652 9.72762L4.94427 9.93993L5.05593 9.59638L4.76367 9.38407H5.1249L5.23652 9.04053Z" fill="white"/>
<path d="M6.87324 9.04053L6.98486 9.38407H7.34609L7.05384 9.59638L7.1655 9.93993L6.87324 9.72762L6.58102 9.93993L6.69264 9.59638L6.40039 9.38407H6.76162L6.87324 9.04053Z" fill="white"/>
<path d="M8.50996 9.04053L8.62158 9.38407H8.98281L8.69059 9.59638L8.80221 9.93993L8.50996 9.72762L8.21774 9.93993L8.32936 9.59638L8.03711 9.38407H8.39834L8.50996 9.04053Z" fill="white"/>
<path d="M10.1467 9.04053L10.2583 9.38407H10.6195L10.3273 9.59638L10.4389 9.93993L10.1467 9.72762L9.85446 9.93993L9.96608 9.59638L9.67383 9.38407H10.0351L10.1467 9.04053Z" fill="white"/>
<path d="M5.23652 10.3965L5.34814 10.74H5.70938L5.41712 10.9524L5.52878 11.2959L5.23652 11.0836L4.94427 11.2959L5.05593 10.9524L4.76367 10.74H5.1249L5.23652 10.3965Z" fill="white"/>
<path d="M6.87324 10.3965L6.98486 10.74H7.34609L7.05384 10.9524L7.1655 11.2959L6.87324 11.0836L6.58102 11.2959L6.69264 10.9524L6.40039 10.74H6.76162L6.87324 10.3965Z" fill="white"/>
<path d="M8.50996 10.3965L8.62158 10.74H8.98281L8.69059 10.9524L8.80221 11.2959L8.50996 11.0836L8.21774 11.2959L8.32936 10.9524L8.03711 10.74H8.39834L8.50996 10.3965Z" fill="white"/>
<path d="M10.1467 10.3965L10.2583 10.74H10.6195L10.3273 10.9524L10.4389 11.2959L10.1467 11.0836L9.85446 11.2959L9.96608 10.9524L9.67383 10.74H10.0351L10.1467 10.3965Z" fill="white"/>
</svg>
